<svg width="873" height="811" viewBox="0 0 873 811" fill="none" xmlns="http://www.w3.org/2000/svg">
<g filter="url(#filter0_f_15_279)">
<circle cx="300" cy="360" r="120" fill="#FFF0C8"/>
</g>
<g filter="url(#filter1_f_15_279)">
<circle cx="496" cy="279" r="99" fill="#C8FFF2"/>
</g>
<g filter="url(#filter2_f_15_279)">
<rect x="497" y="313" width="196" height="197" fill="#C8DEFF"/>
</g>
<g filter="url(#filter3_f_15_279)">
<path d="M434 430L550.047 631H317.953L434 430Z" fill="#FFC8E2"/>
</g>
<path fill-rule="evenodd" clip-rule="evenodd" d="M434 681C589.192 681 715 555.192 715 400C715 247.401 593.362 123.213 441.755 119.105C440.871 119.079 439.986 119.057 439.1 119.041C438.129 119.014 437.155 119 436.178 119C436.064 119 435.95 119 435.836 119.001C435.708 119 435.58 119 435.452 119C435.348 119 435.245 119 435.141 119C435.003 119 434.864 119 434.726 119L434.489 119L434.45 119L434.418 119L434.381 119L434 119C278.808 119 153 244.808 153 400C153 555.192 278.808 681 434 681ZM419.029 122.578C423.986 122.314 428.977 122.181 434 122.181C440.794 122.181 447.531 122.425 454.202 122.904C473.052 130.149 486.43 148.426 486.43 169.827C486.43 197.58 463.931 220.078 436.178 220.078C408.425 220.078 385.927 197.58 385.927 169.827C385.927 148.096 399.72 129.587 419.029 122.578ZM417.144 122.684C398.503 130.218 385.351 148.486 385.351 169.827C385.351 197.898 408.107 220.654 436.178 220.654C464.249 220.654 487.005 197.898 487.005 169.827C487.005 148.821 474.262 130.791 456.085 123.046C456.965 123.115 457.844 123.189 458.722 123.266C489.741 132.874 512.273 161.789 512.273 195.966C512.273 237.993 478.204 272.061 436.178 272.061C394.152 272.061 360.083 237.993 360.083 195.966C360.083 161.229 383.359 131.928 415.166 122.809C415.825 122.765 416.484 122.724 417.144 122.684ZM359.212 195.966C359.212 162.625 380.412 134.235 410.068 123.542C366.419 135.074 334.24 174.832 334.24 222.106C334.24 278.405 379.879 324.045 436.178 324.045C492.478 324.045 538.117 278.405 538.117 222.106C538.117 174.968 506.122 135.303 462.664 123.642L462.525 123.628C492.057 134.386 513.145 162.714 513.145 195.966C513.145 238.474 478.686 272.933 436.178 272.933C393.671 272.933 359.212 238.474 359.212 195.966ZM401.174 125.094C346.847 140.094 306.952 189.874 306.952 248.972C306.952 319.94 364.483 377.472 435.452 377.472C506.421 377.472 563.952 319.94 563.952 248.972C563.952 192.292 527.256 144.183 476.325 127.108C513.324 142.764 539.284 179.403 539.284 222.106C539.284 279.05 493.122 325.212 436.178 325.212C379.234 325.212 333.072 279.05 333.072 222.106C333.072 177.451 361.46 139.426 401.174 125.094ZM305.481 248.972C305.481 193.706 339.974 146.497 388.606 127.699C324.686 147.383 278.229 206.911 278.229 277.289C278.229 363.721 348.295 433.787 434.726 433.787C521.157 433.787 591.224 363.721 591.224 277.289C591.224 209.716 548.396 152.145 488.403 130.24C533.792 150.513 565.424 196.048 565.424 248.972C565.424 320.753 507.234 378.943 435.452 378.943C363.671 378.943 305.481 320.753 305.481 248.972ZM368.371 133.538C300.477 160.075 252.385 226.136 252.385 303.429C252.385 404.133 334.022 485.77 434.726 485.77C535.43 485.77 617.067 404.133 617.067 303.429C617.067 226.136 568.975 160.075 501.081 133.537C555.357 158.633 593.015 213.563 593.015 277.289C593.015 364.71 522.147 435.579 434.726 435.579C347.305 435.579 276.437 364.71 276.437 277.289C276.437 213.563 314.095 158.633 368.371 133.538ZM638.604 325.212C638.604 243.78 590.862 173.499 521.842 140.831C579.768 171.931 619.155 233.08 619.155 303.429C619.155 405.286 536.583 487.858 434.726 487.858C332.869 487.858 250.297 405.286 250.297 303.429C250.297 233.08 289.684 171.931 347.61 140.831C278.59 173.499 230.849 243.78 230.849 325.212C230.849 437.81 322.128 529.089 434.726 529.089C547.324 529.089 638.604 437.81 638.604 325.212ZM337.806 143.15C260.186 179.6 206.441 258.473 206.441 349.899C206.441 475.978 308.648 578.185 434.726 578.185C560.805 578.185 663.011 475.978 663.011 349.899C663.011 258.473 609.266 179.6 531.647 143.15C596.679 177.842 640.938 246.358 640.938 325.212C640.938 439.1 548.614 531.424 434.726 531.424C320.838 531.424 228.514 439.1 228.514 325.212C228.514 246.358 272.774 177.842 337.806 143.15ZM687.411 375.313C687.411 278.198 632.782 193.842 552.577 151.299C620.267 191.553 665.625 265.429 665.625 349.899C665.625 477.421 562.248 580.798 434.726 580.798C307.204 580.798 203.827 477.421 203.827 349.899C203.827 260.726 254.377 183.36 328.384 144.892C241.161 184.937 180.589 273.051 180.589 375.313C180.589 515.268 294.045 628.724 434 628.724C573.955 628.724 687.411 515.268 687.411 375.313ZM564.735 154.802C652.262 201.567 711.819 293.829 711.819 400C711.819 553.435 587.435 677.819 434 677.819C280.565 677.819 156.181 553.435 156.181 400C156.181 293.828 215.738 201.567 303.265 154.802C228.077 199.475 177.687 281.509 177.687 375.313C177.687 516.87 292.442 631.625 434 631.625C575.558 631.625 690.313 516.87 690.313 375.313C690.313 281.509 639.923 199.475 564.735 154.802Z" fill="url(#paint0_linear_15_279)"/>
<defs>
<filter id="filter0_f_15_279" x="0" y="60" width="600" height="600" filterUnits="userSpaceOnUse" color-interpolation-filters="sRGB">
<feFlood flood-opacity="0" result="BackgroundImageFix"/>
<feBlend mode="normal" in="SourceGraphic" in2="BackgroundImageFix" result="shape"/>
<feGaussianBlur stdDeviation="90" result="effect1_foregroundBlur_15_279"/>
</filter>
<filter id="filter1_f_15_279" x="217" y="0" width="558" height="558" filterUnits="userSpaceOnUse" color-interpolation-filters="sRGB">
<feFlood flood-opacity="0" result="BackgroundImageFix"/>
<feBlend mode="normal" in="SourceGraphic" in2="BackgroundImageFix" result="shape"/>
<feGaussianBlur stdDeviation="90" result="effect1_foregroundBlur_15_279"/>
</filter>
<filter id="filter2_f_15_279" x="317" y="133" width="556" height="557" filterUnits="userSpaceOnUse" color-interpolation-filters="sRGB">
<feFlood flood-opacity="0" result="BackgroundImageFix"/>
<feBlend mode="normal" in="SourceGraphic" in2="BackgroundImageFix" result="shape"/>
<feGaussianBlur stdDeviation="90" result="effect1_foregroundBlur_15_279"/>
</filter>
<filter id="filter3_f_15_279" x="137.953" y="250" width="592.095" height="561" filterUnits="userSpaceOnUse" color-interpolation-filters="sRGB">
<feFlood flood-opacity="0" result="BackgroundImageFix"/>
<feBlend mode="normal" in="SourceGraphic" in2="BackgroundImageFix" result="shape"/>
<feGaussianBlur stdDeviation="90" result="effect1_foregroundBlur_15_279"/>
</filter>
<linearGradient id="paint0_linear_15_279" x1="434" y1="119" x2="434" y2="681" gradientUnits="userSpaceOnUse">
<stop stop-color="white"/>
<stop offset="1" stop-color="white" stop-opacity="0"/>
</linearGradient>
</defs>
</svg>
